<?xml version="1.0" encoding="utf-8"?>
<!-- Generator: Adobe Illustrator 18.1.1, SVG Export Plug-In . SVG Version: 6.00 Build 0)  -->
<svg version="1.1" id="Ebene_1" xmlns="http://www.w3.org/2000/svg" xmlns:xlink="http://www.w3.org/1999/xlink" x="0px" y="0px"
	 viewBox="0 0 391.1 391.1" style="enable-background:new 0 0 391.1 391.1;" xml:space="preserve">
<g>
	<g>
		<path style="fill:#242B33;" d="M195.6,388.1C89.4,388.1,3,301.7,3,195.6S89.4,3,195.6,3s192.6,86.4,192.6,192.6
			S301.7,388.1,195.6,388.1z M195.6,43C111.4,43,43,111.4,43,195.6c0,84.1,68.4,152.6,152.6,152.6c84.1,0,152.6-68.4,152.6-152.6
			C348.1,111.4,279.7,43,195.6,43z"/>
		<path style="fill:#82817E;" d="M195.6,391.1C87.7,391.1,0,303.4,0,195.6S87.7,0,195.6,0c107.8,0,195.6,87.7,195.6,195.6
			S303.4,391.1,195.6,391.1z M195.6,6C91,6,6,91,6,195.6s85,189.6,189.6,189.6s189.6-85,189.6-189.6S300.1,6,195.6,6z M195.6,351.1
			C109.8,351.1,40,281.3,40,195.6S109.8,40,195.6,40c85.8,0,155.6,69.8,155.6,155.6S281.3,351.1,195.6,351.1z M195.6,46
			C113.1,46,46,113.1,46,195.6s67.1,149.6,149.6,149.6c82.5,0,149.6-67.1,149.6-149.6S278,46,195.6,46z"/>
	</g>
</g>
<circle style="fill:#CCD3D6;" cx="195.6" cy="23" r="8.8"/>
<circle style="fill:#CCD3D6;" cx="73.5" cy="73.5" r="8.8"/>
<circle style="fill:#CCD3D6;" cx="23" cy="195.6" r="8.8"/>
<circle style="fill:#CCD3D6;" cx="73.5" cy="317.6" r="8.8"/>
<circle style="fill:#CCD3D6;" cx="195.6" cy="368.1" r="8.8"/>
<circle style="fill:#CCD3D6;" cx="317.6" cy="317.6" r="8.8"/>
<circle style="fill:#CCD3D6;" cx="368.1" cy="195.6" r="8.8"/>
<circle style="fill:#CCD3D6;" cx="317.6" cy="73.5" r="8.8"/>
<g>
	<g>
		
			<line style="fill:none;stroke:#3E3F42;stroke-width:2;stroke-linecap:round;stroke-linejoin:round;stroke-miterlimit:10;" x1="76.5" y1="70.5" x2="70.5" y2="76.5"/>
		
			<line style="fill:none;stroke:#3E3F42;stroke-width:2;stroke-linecap:round;stroke-linejoin:round;stroke-miterlimit:10;" x1="70.5" y1="70.5" x2="76.5" y2="76.5"/>
	</g>
	<g>
		
			<line style="fill:none;stroke:#3E3F42;stroke-width:2;stroke-linecap:round;stroke-linejoin:round;stroke-miterlimit:10;" x1="198.6" y1="20" x2="192.6" y2="26"/>
		
			<line style="fill:none;stroke:#3E3F42;stroke-width:2;stroke-linecap:round;stroke-linejoin:round;stroke-miterlimit:10;" x1="192.6" y1="20" x2="198.6" y2="26"/>
	</g>
	<g>
		
			<line style="fill:none;stroke:#3E3F42;stroke-width:2;stroke-linecap:round;stroke-linejoin:round;stroke-miterlimit:10;" x1="320.6" y1="70.5" x2="314.6" y2="76.5"/>
		
			<line style="fill:none;stroke:#3E3F42;stroke-width:2;stroke-linecap:round;stroke-linejoin:round;stroke-miterlimit:10;" x1="314.6" y1="70.5" x2="320.6" y2="76.5"/>
	</g>
	<g>
		
			<line style="fill:none;stroke:#3E3F42;stroke-width:2;stroke-linecap:round;stroke-linejoin:round;stroke-miterlimit:10;" x1="371.1" y1="192.6" x2="365.1" y2="198.6"/>
		
			<line style="fill:none;stroke:#3E3F42;stroke-width:2;stroke-linecap:round;stroke-linejoin:round;stroke-miterlimit:10;" x1="365.1" y1="192.6" x2="371.1" y2="198.6"/>
	</g>
	<g>
		
			<line style="fill:none;stroke:#3E3F42;stroke-width:2;stroke-linecap:round;stroke-linejoin:round;stroke-miterlimit:10;" x1="320.6" y1="314.6" x2="314.6" y2="320.6"/>
		
			<line style="fill:none;stroke:#3E3F42;stroke-width:2;stroke-linecap:round;stroke-linejoin:round;stroke-miterlimit:10;" x1="314.6" y1="314.6" x2="320.6" y2="320.6"/>
	</g>
	<g>
		
			<line style="fill:none;stroke:#3E3F42;stroke-width:2;stroke-linecap:round;stroke-linejoin:round;stroke-miterlimit:10;" x1="198.3" y1="365.1" x2="192.3" y2="371.1"/>
		
			<line style="fill:none;stroke:#3E3F42;stroke-width:2;stroke-linecap:round;stroke-linejoin:round;stroke-miterlimit:10;" x1="192.3" y1="365.1" x2="198.3" y2="371.1"/>
	</g>
	<g>
		
			<line style="fill:none;stroke:#3E3F42;stroke-width:2;stroke-linecap:round;stroke-linejoin:round;stroke-miterlimit:10;" x1="76.5" y1="314.6" x2="70.5" y2="320.6"/>
		
			<line style="fill:none;stroke:#3E3F42;stroke-width:2;stroke-linecap:round;stroke-linejoin:round;stroke-miterlimit:10;" x1="70.5" y1="314.6" x2="76.5" y2="320.6"/>
	</g>
	<g>
		
			<line style="fill:none;stroke:#3E3F42;stroke-width:2;stroke-linecap:round;stroke-linejoin:round;stroke-miterlimit:10;" x1="26" y1="192.6" x2="20" y2="198.6"/>
		
			<line style="fill:none;stroke:#3E3F42;stroke-width:2;stroke-linecap:round;stroke-linejoin:round;stroke-miterlimit:10;" x1="20" y1="192.6" x2="26" y2="198.6"/>
	</g>
</g>
</svg>
