<?xml version="1.0" encoding="utf-8"?>
<!-- Generator: Adobe Illustrator 18.1.1, SVG Export Plug-In . SVG Version: 6.00 Build 0)  -->
<svg version="1.1" id="Ebene_1" xmlns="http://www.w3.org/2000/svg" xmlns:xlink="http://www.w3.org/1999/xlink" x="0px" y="0px"
	 viewBox="0 0 29.9 16.3" style="enable-background:new 0 0 29.9 16.3;" xml:space="preserve">
<g>
	<g>
		<g>
			<path style="opacity:0.2;fill:#517D9E;" d="M29.9,6c-3.6,0-6.6-2.6-7.2-6h-0.2c-0.6,3.4-3.6,6-7.2,6c-3.6,0-6.6-2.6-7.2-6H7.9
				C7.3,3.4,4.3,6,0.7,6C0.5,6,0.2,6,0,6v10.4h29.9V6z"/>
			<path style="fill:#517D9E;" d="M29.9,14c-3.6,0-6.6-2.6-7.2-6h-0.2c-0.6,3.4-3.6,6-7.2,6c-3.6,0-6.6-2.6-7.2-6H7.9
				c-0.6,3.4-3.6,6-7.2,6c-0.2,0-0.5,0-0.7,0v2.4h29.9V14z"/>
		</g>
	</g>
</g>
</svg>
