<?xml version="1.0" encoding="utf-8"?>
<!-- Generator: Adobe Illustrator 18.1.1, SVG Export Plug-In . SVG Version: 6.00 Build 0)  -->
<svg version="1.1" id="Ebene_1" xmlns="http://www.w3.org/2000/svg" xmlns:xlink="http://www.w3.org/1999/xlink" x="0px" y="0px"
	 viewBox="0 0 36.4 65.3" style="enable-background:new 0 0 36.4 65.3;" xml:space="preserve">
<g style="opacity:0.4;">
	<g>
		<path style="fill:#212A38;" d="M27.1,1H9.4C9.1,1,8.9,0.8,8.9,0.5S9.1,0,9.4,0h17.7c0.3,0,0.5,0.2,0.5,0.5S27.3,1,27.1,1z"/>
	</g>
	<g>
		<path style="fill:#212A38;" d="M27.1,17.3H9.4c-0.3,0-0.5-0.2-0.5-0.5s0.2-0.5,0.5-0.5h17.7c0.3,0,0.5,0.2,0.5,0.5
			S27.3,17.3,27.1,17.3z"/>
	</g>
	<g>
		<path style="fill:#212A38;" d="M27.1,33.6H9.4c-0.3,0-0.5-0.2-0.5-0.5s0.2-0.5,0.5-0.5h17.7c0.3,0,0.5,0.2,0.5,0.5
			S27.3,33.6,27.1,33.6z"/>
	</g>
	<g>
		<path style="fill:#212A38;" d="M35.7,50.1h-35c-0.4,0-0.7-0.3-0.7-0.7s0.3-0.7,0.7-0.7h35c0.4,0,0.7,0.3,0.7,0.7
			S36.1,50.1,35.7,50.1z"/>
	</g>
</g>
<rect style="fill:none;" width="36.4" height="65.3"/>
</svg>
