<?xml version="1.0" encoding="utf-8"?>
<!-- Generator: Adobe Illustrator 18.1.1, SVG Export Plug-In . SVG Version: 6.00 Build 0)  -->
<svg version="1.1" id="Ebene_1" xmlns="http://www.w3.org/2000/svg" xmlns:xlink="http://www.w3.org/1999/xlink" x="0px" y="0px"
	 viewBox="0 0 308.1 290.8" style="enable-background:new 0 0 308.1 290.8;" xml:space="preserve">
<path style="fill:#517D9E;" d="M287.1,0h-0.8c-2.2,12.3-13,21.7-25.9,21.7S236.6,12.3,234.4,0h-0.8c-2.2,12.3-13,21.7-25.9,21.7
	c-13,0-23.7-9.3-25.9-21.7h-0.8c-2.2,12.3-13,21.7-25.9,21.7S131.2,12.3,129,0h-0.8c-2.2,12.3-13,21.7-25.9,21.7
	c-13,0-23.7-9.3-25.9-21.7h-0.8c-2.2,12.3-13,21.7-25.9,21.7S25.9,12.3,23.6,0h-0.8C20.8,11.3,11.5,20.1,0,21.5v269.4h308.1V21.2
	C297.4,19.2,289,10.7,287.1,0z"/>
</svg>
