<?xml version="1.0" encoding="utf-8"?>
<!-- Generator: Adobe Illustrator 18.1.1, SVG Export Plug-In . SVG Version: 6.00 Build 0)  -->
<svg version="1.1" id="Ebene_1" xmlns="http://www.w3.org/2000/svg" xmlns:xlink="http://www.w3.org/1999/xlink" x="0px" y="0px"
	 viewBox="0 0 308.1 280.3" style="enable-background:new 0 0 308.1 280.3;" xml:space="preserve">
<path style="opacity:0.7;fill:#79A1BA;" d="M294.4,0h-0.7c-1.9,10.9-11.4,19.1-22.9,19.1c-11.4,0-20.9-8.2-22.9-19.1h-0.7
	c-1.9,10.9-11.4,19.1-22.9,19.1c-11.4,0-20.9-8.2-22.9-19.1h-0.7c-1.9,10.9-11.4,19.1-22.9,19.1S156.9,10.9,155,0h-0.7
	c-1.9,10.9-11.4,19.1-22.9,19.1S110.4,10.9,108.5,0h-0.7c-1.9,10.9-11.4,19.1-22.9,19.1C73.4,19.1,63.9,10.9,62,0h-0.7
	c-1.9,10.9-11.4,19.1-22.9,19.1C27,19.1,17.5,10.9,15.5,0h-0.7C13.3,8.2,7.6,14.8,0,17.7v262.7h308.1V17.2
	C301.1,14.2,295.8,7.8,294.4,0z"/>
</svg>
